<svg version="1.2" xmlns="http://www.w3.org/2000/svg" viewBox="0 0 512 512" width="512" height="512">
	<title>chat</title>
	<style>
		.s0 { fill: #ececec } 
	</style>
	<path id="Path 0" fill-rule="evenodd" class="s0" d="m113.5 16.1h142.3c103.3-0.1 143.5 0.2 146.9 1 2.7 0.7 8.2 2 12.3 3.1 4.1 1.1 11.5 3.8 16.5 6.2 4.9 2.3 11.9 6.2 15.5 8.6 3.6 2.4 10.5 8.2 15.3 12.9 4.9 4.7 11.3 12.2 14.2 16.6 2.9 4.4 6.6 10.7 8.3 14 1.6 3.3 4.1 9.6 5.5 14 1.4 4.4 3.3 11.8 4.2 16.5 1.3 7.3 1.5 21 1.5 95.5 0 84.2 0 87.3-2.1 97.5-1.1 5.8-3.8 15-5.9 20.5-2.2 5.5-6.6 14.1-9.9 19-3.2 4.9-8.7 12.1-12.2 15.9-3.5 3.8-10 9.6-14.4 12.9-4.4 3.3-12.5 8.2-18 10.8-5.5 2.7-13.8 5.9-18.5 7.3-4.7 1.3-13.2 2.9-19 3.5-6.6 0.7-38.6 1.1-162 1.1l-51.8 51.5c-43.1 42.9-52.2 51.5-54.5 51.5-1.5 0-3.4-0.3-4.3-0.8-0.9-0.4-2.3-1.9-3-3.5-1.1-2.2-1.4-12.3-1.4-99.7l-2.3-0.5c-1.2-0.3-3.3-0.5-4.7-0.5-1.4 0-7-1.1-12.5-2.5-6.6-1.6-14.1-4.6-22-8.5-7.1-3.5-15.3-8.6-20-12.4-4.4-3.6-11-10-14.7-14.3-3.7-4.3-8.7-11.2-11.2-15.3-2.4-4.1-5.9-11.1-7.6-15.5-1.8-4.4-4.3-12.7-8-29v-87.5c0-83.4 0.1-88 2-97.5 1.1-5.5 3-13.2 4.3-17 1.3-3.8 4.2-10.6 6.4-15 2.3-4.4 6.7-11.6 10-16 3.3-4.4 9.1-10.9 12.9-14.4 3.8-3.6 10.9-9.1 15.9-12.3 4.9-3.2 12.4-7.2 16.5-9 4.1-1.7 12.4-4.3 18.5-5.9zm47.1 170.1c-2.1 1.8-4.8 5.1-6 7.3-1.5 2.9-2 5.9-2.1 11.1 0 6.1 0.4 7.7 3 11.9 1.9 3 4.9 6 7.9 7.9 4.4 2.7 5.8 3.1 12.6 3.1 6.8 0 8.2-0.4 12.5-3 3.1-1.9 6.1-4.9 7.9-7.9 2.7-4.3 3.1-5.9 3.1-12-0.1-5.2-0.6-8.2-2.1-11.1-1.2-2.2-3.9-5.5-6-7.3-2.1-1.8-6.2-3.9-8.9-4.8-2.8-0.8-5.9-1.4-7-1.4-1.1 0.1-4 0.8-6.5 1.5-2.5 0.8-6.3 2.9-8.4 4.7zm80 0c-2.1 1.8-4.8 5.1-6 7.3-1.5 2.9-2 5.9-2.1 11.1 0 6.1 0.4 7.7 3 11.9 1.9 3 4.9 6 7.9 7.9 4.4 2.7 5.8 3.1 12.6 3.1 6.8 0 8.2-0.4 12.5-3 3.1-1.9 6.1-4.9 7.9-7.9 2.7-4.3 3.1-5.9 3.1-12-0.1-5.2-0.6-8.2-2.1-11.1-1.2-2.2-3.9-5.5-6-7.3-2.1-1.8-6.2-3.9-8.9-4.8-2.8-0.8-5.9-1.4-7-1.4-1.1 0.1-4 0.8-6.5 1.5-2.5 0.8-6.3 2.9-8.4 4.7zm80 0c-2.1 1.8-4.8 5.1-6 7.3-1.5 2.9-2 5.9-2.1 11.1 0 6.1 0.4 7.7 3 11.9 1.9 3 4.9 6 7.9 7.9 4.4 2.7 5.8 3.1 12.6 3.1 6.8 0 8.2-0.4 12.5-3 2.8-1.7 6.1-4.9 7.7-7.5 2-3.1 3.1-6.4 3.5-10.5 0.4-5 0.1-6.9-1.8-11.4-1.4-3.2-4-6.8-6.4-8.8-2.2-1.9-6.3-4.1-9-4.9-2.8-0.8-5.9-1.4-7-1.4-1.1 0.1-4 0.8-6.5 1.5-2.5 0.8-6.3 2.9-8.4 4.7z"/>
</svg>