<svg version="1.2" xmlns="http://www.w3.org/2000/svg" viewBox="0 0 512 512" width="512" height="512">
	<title>email</title>
	<style>
		.s0 { fill: #ececec } 
	</style>
	<path id="Path 0" class="s0" d="m33.5 66.4c-3.3 1.2-8 3.3-10.5 4.7-2.5 1.5-6.8 4.9-9.5 7.7-2.8 2.8-6.2 7.4-7.8 10.4-1.5 2.9-3.4 7.8-4.2 10.8-0.8 3-1.5 8.2-1.5 11.5 0 3.3 0.9 8.9 1.9 12.5 1.1 3.6 3.3 8.5 4.9 11 1.6 2.5 4.4 6 6.3 7.9 1.9 1.9 52 35.8 111.4 75.4 59.4 39.6 110.2 73.1 113 74.3 2.7 1.3 7.9 2.8 11.5 3.4 4.9 0.9 8.3 0.9 13.5 0.1 3.9-0.6 9.7-2.4 13-4 3.3-1.5 53.9-34.7 112.5-73.8 69.4-46.3 108.2-72.7 111.2-75.9 2.7-2.7 5.9-6.9 7.2-9.4 1.4-2.5 3.2-7.2 4-10.5 0.9-3.3 1.6-8.8 1.6-12.3 0-3.9-0.9-8.7-2.3-13-1.3-3.7-3.5-8.5-4.9-10.7-1.4-2.2-4.5-6-6.9-8.4-2.4-2.4-6.4-5.5-8.9-6.9-2.5-1.5-7.4-3.7-11-4.9l-6.5-2.3-432 0.2zm-33.4 223.5l-0.1 118.1c3.6 10.5 5.8 15.4 7.3 17.8 1.5 2.3 4.6 6.1 6.9 8.3 2.4 2.3 6.3 5.3 8.8 6.8 2.5 1.4 7.4 3.6 11 4.9l6.5 2.2h431c10.1-3.5 15.2-5.8 18-7.4 2.7-1.7 7.1-5.3 9.7-8 2.6-2.8 5.9-7.3 7.3-10.1 1.4-2.7 3.2-7.4 4-10.5 1.3-4.7 1.5-22.4 1.5-122.7 0-64.5-0.3-117.2-0.8-117-0.4 0.1-48.7 32.3-107.5 71.5-58.7 39.2-110 72.9-114 74.9-3.9 1.9-10.6 4.5-14.7 5.6-5.4 1.4-10.7 2-19 2-8.3 0-13.6-0.6-19-2-4.1-1.1-10.8-3.7-14.8-5.6-3.9-2-55.2-35.7-114-74.9-58.7-39.2-107-71.4-107.3-71.6-0.4-0.2-0.7 52.8-0.8 117.7z"/>
</svg>