<svg version="1.2" xmlns="http://www.w3.org/2000/svg" viewBox="0 0 512 512" width="512" height="512">
	<title>facebook-app-symbol</title>
	<style>
		.s0 { fill: #ececec } 
	</style>
	<path id="Path 0" class="s0" d="m298 1.2c-2.5 0.5-8.6 1.9-13.5 3-4.9 1.1-12.4 3.4-16.5 5-4.1 1.7-9.5 4.2-12 5.6-2.5 1.4-7.2 4.5-10.5 6.8-3.3 2.3-9.2 7.5-13 11.5-3.8 4.1-8.6 9.9-10.6 12.9-2 3-5 8.2-6.6 11.5-1.7 3.3-4.3 9.4-5.8 13.5-1.5 4.1-3.6 11.8-4.7 17-1.9 8.6-2.1 13.6-2.4 54.3l-0.4 44.7h-79v91l78.5 0.5 0.5 233.5h94v-234c60.4 0 78-0.1 78-0.2 0.1-0.2 2.7-20.3 5.9-44.8 3.2-24.5 5.6-44.8 5.4-45.3-0.1-0.4-20.3-0.7-44.8-0.7h-44.5c0.5-74 0.6-74.6 3-80.5 1.3-3.3 4-7.8 6-10 2.1-2.2 6.4-5.2 9.6-6.7 3.3-1.5 9.3-3.2 13.4-3.7 4.1-0.6 19.5-1.1 34.2-1.1h26.8l-0.5-81.5c-30-2.7-46.2-3.3-61.5-3.3-13.5 0-26.5 0.5-29 1z"/>
</svg>