<svg version="1.2" xmlns="http://www.w3.org/2000/svg" viewBox="0 0 512 512" width="512" height="512">
	<title>github</title>
	<style>
		.s0 { fill: #ececec } 
	</style>
	<path id="Path 0" class="s0" d="m229.5 12c-8.3 0.9-19.7 2.7-25.5 3.9-5.8 1.2-15.9 3.8-22.5 5.7-6.6 2-16.9 5.6-23 8-6.1 2.5-16.2 7.2-22.5 10.6-6.3 3.3-15.8 8.8-21 12.1-5.2 3.4-14.9 10.5-21.5 15.8-6.6 5.3-17 14.8-23 21.1-6 6.3-14.4 15.9-18.6 21.4-4.2 5.4-10.3 14.2-13.6 19.4-3.3 5.2-8.7 14.9-12 21.5-3.3 6.6-8.1 17.4-10.6 24-2.5 6.6-6.1 18.5-8.1 26.5-1.9 8-4.3 19.2-5.2 25-0.9 5.8-1.8 19.5-2.1 30.5-0.4 15.6-0.1 22.8 1.2 32.5 0.9 6.9 2.8 17.9 4.2 24.5 1.4 6.6 4.4 17.9 6.7 25 2.4 7.1 6.8 18.4 9.7 25 3 6.6 8.5 17.2 12.3 23.5 3.8 6.3 9.1 14.6 11.9 18.5 2.7 3.9 8.2 10.8 12.1 15.5 3.9 4.7 10.7 12.1 15.1 16.5 4.4 4.4 11.9 11.2 16.5 15.1 4.7 3.9 11.7 9.4 15.5 12.1 3.8 2.7 11.7 7.8 17.5 11.3 5.8 3.5 15 8.5 20.5 11.1 5.5 2.7 15.4 6.9 22 9.4 6.6 2.5 13.1 4.5 14.5 4.5 1.4 0 4-0.9 5.8-2 1.7-1.1 4-3.2 4.9-4.7 1.5-2.5 1.7-5.5 1.4-25.8-0.1-12.6-0.3-23.1-0.4-23.1-0.1-0.1-4.3 0.5-9.2 1.3-5.6 0.9-12.9 1.2-19.5 0.9-5.8-0.2-13.2-1.2-16.5-2.1-3.3-0.8-9.4-3.2-13.5-5.1-5.6-2.7-9.3-5.4-14.6-10.7-6.1-6.3-8-9.1-14.2-21.7-3.9-8-9.1-17.1-11.6-20.2-2.5-3.2-7.6-7.9-11.3-10.5-3.7-2.7-8.2-6.3-10-8-2.1-2.1-3.2-4.1-3.1-5.5 0.2-1.7 1.4-2.7 4.3-3.7 3.2-1 5.4-1.1 10.5-0.2 3.6 0.6 9.2 2.4 12.5 3.9 3.3 1.6 8.7 5.3 11.9 8.3 3.2 3 8.2 8.8 10.9 12.9 2.8 4.1 7.1 9.7 9.6 12.3 2.6 2.7 6.6 6.2 9.1 7.7 2.5 1.6 6.5 3.6 9 4.5 2.5 0.9 7.5 2 11.3 2.5 4.5 0.7 9.2 0.6 14.4-0.1 4.3-0.6 10.6-2 14-3 4.6-1.4 6.6-2.5 7.2-4.2 0.5-1.2 1.6-5.1 2.5-8.7 0.9-3.6 3.2-9.2 5.2-12.5 1.9-3.3 4.6-7.1 5.9-8.5l2.4-2.5c-9.6-1.3-17.8-2.8-24.4-4.2-6.6-1.4-15.8-3.9-20.5-5.5-4.7-1.7-11.2-4.4-14.5-6-3.3-1.7-8.5-4.7-11.5-6.7-3-2-9-7-13.4-11.1-4.3-4.1-9.8-10.4-12.1-14-2.4-3.6-5.9-9.9-7.9-14-1.9-4.1-4.6-11.3-5.9-16-1.4-4.7-3.3-13.9-4.2-20.5-1.3-9-1.6-16.2-1.2-28.5 0.4-14.1 0.9-17.8 3.1-25.5 1.5-4.9 4.4-12.4 6.4-16.5 2-4.1 6.5-11.2 9.9-15.8 4.9-6.3 6.1-8.6 5.4-10-0.5-0.9-1.6-5-2.5-9-0.9-4-1.6-11.6-1.6-17.2 0-5.5 0.7-13.5 1.5-17.8 0.8-4.2 2.4-10.4 3.5-13.7 1.6-5 2.4-6.1 4.7-6.7 1.6-0.4 6-0.2 9.8 0.3 3.8 0.5 10.9 2.3 15.7 3.9 4.9 1.7 13 5.1 18 7.6 5.1 2.6 12.8 6.9 17 9.5 7.1 4.5 8.1 4.8 11 3.9 1.8-0.6 9.1-2.1 16.3-3.5 7.2-1.3 20-2.9 28.5-3.5 11.6-0.9 19.4-0.9 31 0 8.5 0.6 20.4 2 26.5 3 6.1 1.1 13.5 2.6 16.5 3.4l5.5 1.5c13.9-8.7 22.5-13.4 28-16 5.5-2.6 13.1-5.7 17-6.8 3.9-1.2 9.9-2.6 13.5-3.1 3.6-0.5 7.8-0.6 9.3-0.2 2.5 0.6 3.1 1.6 5.2 8.2 1.2 4.1 2.9 11.1 3.5 15.5 0.8 5 1.1 12.4 0.7 19.5-0.3 7-1.2 13.8-2.4 17.5l-1.9 6c7.1 8.7 10.8 14.1 12.9 17.6 2 3.5 5 9.8 6.6 13.9 1.6 4.1 3.7 11.1 4.6 15.5 1.1 5.4 1.6 12.8 1.6 23 0 8.2-0.7 19.7-1.5 25.5-0.9 5.8-2.7 14.1-4 18.5-1.3 4.4-3.4 10.5-4.7 13.5-1.2 3-4.1 8.5-6.3 12.2-2.3 3.8-6.1 9.3-8.6 12.4-2.5 3.1-7.9 8.4-12.1 11.8-4.2 3.3-11.7 8.2-16.5 10.8-4.9 2.6-13.2 6.1-18.4 7.8-5.2 1.8-14.7 4.2-21 5.5-6.3 1.3-14.1 2.6-17.3 2.9l-5.7 0.6c5.4 6.2 8.3 10.6 9.9 13.7 1.6 3.2 3.7 8.5 4.7 11.8 1.5 5.2 1.8 12 2.3 50.5 0.4 32.8 0.9 45.1 1.8 46.8 0.7 1.2 2.7 2.9 4.3 3.7 1.6 0.8 4.7 1.5 6.7 1.5 2.1 0 8.3-1.6 13.8-3.6 5.5-2 16.7-6.9 25-10.9 8.2-4.1 20.4-10.9 27-15.2 6.6-4.4 16.5-11.6 22-16 5.5-4.4 15.2-13.4 21.5-19.9 6.4-6.6 14.6-15.7 18.2-20.4 3.6-4.7 10-13.9 14.3-20.5 4.2-6.6 10-16.9 12.9-23 3-6.1 7-15.2 9-20.3 2-5 4.7-13.1 6.1-18 1.4-4.8 3.5-12.8 4.6-17.7 1.1-4.9 2.9-15.3 4-23 1.3-9.3 1.9-19.6 1.9-30.8 0-11.4-0.6-21.2-2-31-1.1-7.8-3.6-20.7-5.6-28.7-2-8-5.6-19.9-8.1-26.5-2.5-6.6-7-16.9-10.1-23-3-6.1-7.9-15.1-10.9-20-3.1-5-9.2-14-13.8-20-4.5-6-13.1-16.1-19.1-22.4-6-6.3-15.2-15-20.4-19.3-5.2-4.4-15.1-11.7-22-16.3-6.9-4.6-17.7-11.1-24-14.4-6.3-3.3-16.4-8-22.5-10.4-6.1-2.5-15.5-5.9-21-7.6-5.5-1.7-15.4-4.2-22-5.6-6.6-1.5-19.6-3.5-29-4.5-9.4-1.1-21.5-1.9-27-1.9-5.5 0.1-16.8 0.9-25 1.9z"/>
</svg>