<svg version="1.2" xmlns="http://www.w3.org/2000/svg" viewBox="0 0 512 512" width="512" height="512">
	<title>instagram</title>
	<style>
		.s0 { fill: #ececec } 
	</style>
	<path id="Path 0" fill-rule="evenodd" class="s0" d="m261 0.5c61.9 0.1 100.1 0.6 108.5 1.4 7.1 0.6 18.2 2 24.5 3.1 6.3 1.2 16.7 3.8 23 5.9 6.3 2.1 14.9 5.5 19 7.6 4.1 2.1 10.9 6.1 15 8.8 4.1 2.8 11.7 9.2 16.9 14.1 5.2 5 11.9 12.5 15 16.6 3 4.1 7.6 11.5 10.2 16.5 2.6 5 6.3 13.5 8.2 19 1.9 5.5 4.4 14.3 5.5 19.5 1.1 5.2 2.7 14.2 3.4 20 1 8.1 1.3 35.7 1.3 122 0 85.1-0.3 114.1-1.3 122.5-0.7 6.1-2.4 16.2-3.8 22.5-1.4 6.3-4.3 16.2-6.5 22-2.2 5.8-6 14.1-8.5 18.5-2.6 4.4-7 11.1-9.9 15-2.9 3.9-9.3 10.8-14.2 15.5-4.8 4.7-12.6 11.1-17.3 14.2-4.7 3.1-11.2 6.9-14.5 8.6-3.3 1.6-10.1 4.4-15 6.2-4.9 1.7-12.6 4-17 5-4.4 1.1-10.9 2.4-14.5 2.9-3.6 0.6-15.3 1.7-26 2.6-15.4 1.2-37.8 1.5-106 1.5-65.9 0-91-0.4-105.5-1.5-10.4-0.8-22.4-1.9-26.5-2.5-4.1-0.6-12.6-2.5-18.7-4.1-6.2-1.6-15.2-4.6-20-6.7-4.9-2-12.3-5.7-16.7-8.2-4.3-2.5-12-7.9-17-12.1-5-4.1-12.1-11.1-15.7-15.5-3.6-4.3-7.9-9.9-9.6-12.4-1.7-2.5-4.9-8.1-7.1-12.5-2.2-4.4-5.4-11.6-7-16-1.6-4.4-3.9-12.1-5.1-17-1.3-4.9-2.9-13.5-3.6-19-0.8-5.5-1.9-21.3-2.6-35-0.6-13.8-1.1-55.6-1.1-93 0-37.4 0.5-79.3 1.1-93 0.7-13.8 1.9-29.9 2.7-36 0.8-6 2.6-15.3 4-20.5 1.3-5.2 3.6-12.7 5.1-16.5 1.4-3.8 4.6-11 7.2-16 2.5-5 7.1-12.4 10.2-16.5 3-4.1 9.1-11 13.5-15.4 4.3-4.3 10.6-9.8 13.9-12.3 3.3-2.5 8.9-6.1 12.5-8.1 3.6-2 10.4-5.3 15.3-7.4 4.8-2.1 13.8-5.1 19.9-6.7 6.2-1.7 14.9-3.5 19.3-4.2 4.4-0.6 15.2-1.7 24-2.4 11.8-0.9 41.2-1.2 111.5-1zm-131 49.9c-5.2 0.9-13.8 3.1-19 4.9-5.2 1.8-13 5.2-17.4 7.7-4.5 2.6-11.1 7.7-15.6 12-4.3 4.1-9.8 10.7-12.2 14.5-2.5 3.8-5.9 10.4-7.6 14.5-1.6 4.1-3.8 10.4-4.7 14-0.9 3.6-2.3 11.2-3.1 17-0.7 5.8-1.9 28.1-2.5 49.5-0.7 24-0.9 62.7-0.5 100.5 0.3 33.8 1.1 68.5 1.6 77 0.6 8.5 2 20 3.1 25.5 1.1 5.5 3.5 13.8 5.2 18.5 1.8 4.7 4.8 11.2 6.7 14.4 1.9 3.2 6.7 9.2 10.5 13.4 3.8 4.1 9.5 9.3 12.5 11.6 3 2.2 9.3 5.8 14 7.9 4.7 2.2 12.5 5 17.5 6.2 5 1.3 12.5 2.8 16.7 3.4 4.3 0.6 20.3 1.6 35.5 2.2 17.7 0.7 56.5 0.9 106.8 0.6 44.8-0.3 84.2-1 91-1.7 6.6-0.6 16.7-2.1 22.5-3.4 5.8-1.3 14.1-3.9 18.5-5.7 4.4-1.8 11.1-5.4 15-8 3.9-2.6 10.4-8.2 14.5-12.6 4.1-4.4 9.2-10.9 11.3-14.4 2-3.5 5-9.8 6.6-13.9 1.6-4.1 3.9-12 5-17.5 1.1-5.5 2.6-16.8 3.3-25 0.9-10.7 1.3-41.5 1.3-107 0-66.6-0.4-96.3-1.3-107.5-0.7-8.5-2-19.1-2.9-23.5-0.8-4.4-3-12.3-4.9-17.5-1.9-5.2-5.3-12.7-7.6-16.5-2.3-4-7.8-10.7-12.7-15.6-4.7-4.7-11.3-10.1-14.6-12-3.3-1.9-9.4-4.9-13.5-6.6-4.1-1.7-10.6-3.8-14.5-4.8-3.9-0.9-11.7-2.4-17.5-3.2-8.8-1.3-26.4-1.6-110.5-1.8-55-0.2-106.1 0.1-113.5 0.5-7.4 0.5-17.8 1.6-23 2.4zm263 38.6c3.6 0 8.8 0.7 11.5 1.7 3.4 1.1 6.7 3.4 10.6 7.2 4.1 4.1 6 7 7.4 11.1 1.3 4 1.6 7.4 1.3 12.5-0.3 4.4-1.3 8.6-2.6 11.2-1.2 2.4-3.7 5.9-5.5 7.9-1.7 2-5.7 4.8-8.7 6.2-4.5 2.2-6.9 2.7-13.5 2.7-6.2 0-9-0.5-12.5-2.2-2.5-1.2-6.4-4.1-8.8-6.5-2.4-2.4-5.3-6.3-6.5-8.8-1.7-3.5-2.2-6.3-2.2-12.5 0-5.9 0.6-9.2 2.1-12.5 1.1-2.5 3.6-6.2 5.5-8.3 1.9-2.2 6.1-5.2 9.4-6.8 4.7-2.3 7.3-2.9 12.5-2.9zm-137 36.1c9.1-0.1 17.9 0.5 23.5 1.4 4.9 0.9 13.7 3.2 19.5 5.1 5.8 1.9 14.3 5.5 19 8 4.7 2.5 12 7.1 16.4 10.2 4.3 3.1 11.9 10 17 15.2 5 5.2 11.7 13.3 14.8 18 3.1 4.7 7 11.4 8.8 15 1.8 3.6 4.7 11 6.6 16.5 1.8 5.5 4 14.1 4.9 19 0.9 5.1 1.5 14.8 1.5 22.5 0 7.7-0.6 17.4-1.5 22.5-0.9 4.9-3.2 13.7-5.1 19.5-1.9 5.8-5.5 14.3-8 19-2.5 4.7-7.1 12-10.2 16.4-3.1 4.3-10 11.9-15.2 17-5.2 5.1-12.9 11.5-17 14.3-4.1 2.7-10.2 6.4-13.5 8-3.3 1.7-8.9 4.3-12.5 5.7-3.6 1.5-11 3.8-16.5 5.1-5.5 1.4-14.7 2.9-20.5 3.4-6 0.5-15 0.5-21 0.1-5.8-0.5-13.9-1.6-18-2.5-4.1-0.9-10.9-2.8-15-4.2-4.1-1.4-11.1-4.4-15.5-6.6-4.4-2.2-11.2-6.1-15-8.7-3.8-2.6-10-7.4-13.6-10.6-3.6-3.3-9-8.6-11.9-11.9-2.9-3.3-7.4-9.1-10-13-2.6-3.9-6.6-10.7-8.9-15.3-2.2-4.5-5.3-11.7-6.7-16-1.4-4.2-3.5-12.2-4.6-17.7-1.4-7.2-1.9-14.1-1.9-24.5 0-10.4 0.5-17.3 1.9-24.5 1.1-5.5 3-12.9 4.2-16.5 1.2-3.6 3.8-10.1 5.9-14.5 2-4.4 6.3-12.1 9.5-17 3.7-5.7 9.9-13.1 17-20.1 6.8-6.8 14.4-13.3 19.6-16.7 4.7-3 11.4-6.9 15-8.7 3.6-1.8 11-4.8 16.5-6.6 5.5-1.8 13.6-4 18-4.8 4.4-0.8 14.5-1.5 22.5-1.5zm-30.5 51.9c-4.4 1.7-11.2 5.2-15 7.8-3.8 2.5-9.2 6.6-11.9 9.1-2.7 2.5-6.8 7.1-9.1 10.1-2.3 3-5.8 8.4-7.8 12-1.9 3.6-4.7 10.3-6.2 15-2.2 6.7-2.8 11.2-3.3 21-0.3 9.2 0 14.6 1.1 20.5 0.9 4.4 2.8 10.9 4.2 14.5 1.4 3.6 4.3 9.4 6.4 13 2.1 3.6 6.5 9.4 9.7 12.9 3.3 3.5 8.4 8.3 11.4 10.6 3 2.3 8.4 5.8 12 7.8 3.6 1.9 10.3 4.7 15 6.2 6.9 2.2 11 2.8 21.5 3.2 9.3 0.4 15 0.1 20-1 3.9-0.8 10.6-2.9 15-4.6 4.4-1.7 10.9-5 14.5-7.3 3.6-2.4 9.4-7 12.9-10.3 3.5-3.3 8.9-9.8 11.9-14.5 3.1-4.7 7-11.9 8.5-16 1.6-4.1 3.5-10.8 4.3-14.8 0.8-3.9 1.4-11.3 1.4-16.2 0-4.9-0.6-12.3-1.4-16.3-0.7-3.9-2.8-10.8-4.6-15.2-1.7-4.4-5.5-11.6-8.5-16-2.9-4.4-8.1-10.7-11.6-14-3.5-3.3-9.8-8.1-13.9-10.7-4.1-2.6-10.6-5.9-14.5-7.3-3.9-1.5-10.3-3.3-14.3-4.1-3.9-0.8-11.6-1.4-17-1.3-5.3 0-12.6 0.7-16.2 1.4-3.6 0.7-10.1 2.7-14.5 4.5z"/>
</svg>