<svg version="1.2" xmlns="http://www.w3.org/2000/svg" viewBox="0 0 512 512" width="512" height="512">
	<title>menu</title>
	<style>
		.s0 { fill: #ececec } 
	</style>
	<path id="Path 0" class="s0" d="m19 66.8c-3 1.5-7.3 4.5-9.5 6.7-2.2 2.2-5.1 6.3-6.4 9-1.4 2.9-2.6 7.7-2.9 11.5-0.4 4.9 0 7.8 1.4 11.8 1 3 3.5 7.4 5.4 10 2.2 2.9 5.9 5.9 10 8.1l6.5 3.6h465c7.8-4.1 11.4-6.4 13-7.7 1.6-1.4 4.5-5.4 6.4-8.9 2.7-5 3.6-7.9 3.9-13.4 0.5-6.3 0.2-7.7-2.7-14-1.8-3.8-4.9-8.6-6.9-10.5-2.1-1.9-6.3-4.7-9.5-6.2l-5.7-2.8-462.5 0.1zm5.5 158.2c-1.6 0.4-4.8 1.5-7 2.6-2.2 1-5.8 3.7-8 5.9-2.2 2.2-5.1 6.3-6.4 9-1.4 3-2.6 7.7-2.9 11.5-0.4 4.9 0 7.9 1.4 11.9 1 2.9 3.5 7.4 5.4 9.9 2.2 2.9 5.9 5.9 10 8.2l6.5 3.5h465c7.8-4 11.4-6.3 13-7.7 1.6-1.4 4.5-5.4 6.4-8.9 2.7-5 3.6-7.9 3.9-13.4 0.5-6.3 0.2-7.6-2.7-14-1.8-3.8-4.9-8.5-6.9-10.5-2.1-1.9-6-4.6-8.7-6l-5-2.5c-357.3-0.2-462.4 0.1-464 0.5zm0 160c-1.6 0.4-4.8 1.5-7 2.6-2.2 1-5.8 3.7-8 5.9-2.2 2.2-5.1 6.3-6.4 9-1.4 3-2.6 7.7-2.9 11.5-0.4 4.9 0 7.9 1.4 11.9 1 2.9 3.5 7.4 5.4 9.9q3.5 4.6 10.5 8.4l7 3.8h462.5c8.9-4.4 12.9-6.8 14.5-8.2 1.6-1.4 4.5-5.4 6.4-8.9 2.7-5 3.6-7.9 3.9-13.4 0.5-6.3 0.2-7.6-2.7-14-1.8-3.8-4.9-8.5-6.9-10.5-2.1-1.9-6-4.6-8.7-6l-5-2.5c-357.3-0.2-462.4 0.1-464 0.5z"/>
</svg>