<svg version="1.2" xmlns="http://www.w3.org/2000/svg" viewBox="0 0 512 512" width="512" height="512">
	<title>phone-call</title>
	<style>
		.s0 { fill: #ececec } 
	</style>
	<path id="Path 0" class="s0" d="m85.5 2.4c-3.3 1.2-7.6 3-9.5 4-1.9 1-17.1 15.4-33.6 32-28.2 28.2-30.4 30.6-33.7 37.6-2 4.1-4.3 10.2-5.2 13.5-1 3.7-1.9 11.7-2.2 20.5-0.4 11-0.2 17.1 1.1 25 1 5.8 3 15.4 4.6 21.5 1.6 6.1 4.7 15.9 6.9 22 2.2 6.1 5.7 15.1 7.9 20 2.2 4.9 6 13.1 8.4 18 2.5 4.9 8.1 15.1 12.3 22.5 4.3 7.4 11.9 19.6 16.8 27 5 7.4 12.8 18.7 17.5 25 4.7 6.3 12.2 16 16.6 21.5 4.4 5.5 13.2 15.9 19.5 23 6.3 7.1 18.5 20.1 27.1 28.8 8.5 8.8 22.9 22.5 32 30.7 9.1 8.1 21.7 19 28 24.1 6.3 5.1 16.4 12.9 22.5 17.4 6.1 4.5 15.9 11.4 22 15.5 6.1 4.1 17.3 11.2 25 15.8 7.7 4.6 21.6 12.1 31 16.7 9.4 4.6 21.2 9.9 26.3 11.9 5 2 14.5 5.2 20.9 7.2 6.5 1.9 16.5 4.5 22.3 5.7 6.8 1.4 15.4 2.2 24.5 2.5 12.5 0.3 15 0 24-2.3 5.5-1.4 13.1-4.2 17-6.2 6.1-3.2 10.9-7.6 36.7-33.2 24.4-24.4 30.1-30.6 32.6-35.6 1.6-3.3 3.7-8.5 4.6-11.5 0.9-3.1 1.6-9 1.6-13.5 0-4.4-0.7-10.4-1.6-13.5-0.9-3-2.8-7.7-4.1-10.5-1.9-3.7-12.5-15-40.7-43.3-20.9-21.1-40.8-40.3-44.1-42.7-3.3-2.3-8.7-5.2-12-6.4-3.3-1.3-8.9-2.5-12.5-2.8-3.6-0.3-9.2 0-12.5 0.6-3.3 0.6-8.9 2.5-12.5 4.2-4.3 2-8.5 5.2-12.5 9.2-4.9 5-6.9 8.1-10.3 16.2-2.4 5.5-5.6 11.6-7 13.6-1.5 2-4.9 5.5-7.7 7.9-2.7 2.3-7.7 5.5-11 7-3.3 1.6-8.9 3.4-12.5 4-3.6 0.7-9.2 0.9-12.5 0.6-3.3-0.4-8.9-1.6-12.5-2.8-3.6-1.1-11-4.2-16.5-6.8-5.5-2.7-14.5-7.8-20-11.5-5.5-3.7-14.1-10-19-14-4.9-4-13.9-12.2-19.9-18.1-5.9-6-14.1-15-18.1-19.9-4-4.9-10.3-13.7-14-19.5-3.8-5.8-8.5-14.1-10.6-18.5-2-4.4-4.9-11.6-6.4-16-1.5-4.4-2.9-11.2-3.2-15-0.3-3.8 0-9.4 0.6-12.2 0.6-2.9 2.3-7.9 3.9-11 1.5-3.1 4.7-7.9 7.2-10.6 2.5-2.8 6.3-6.2 8.5-7.7 2.2-1.4 6.9-3.9 10.5-5.4 3.6-1.5 8-3.5 9.9-4.4 1.8-0.9 5.4-3.5 7.9-5.7 2.5-2.2 6-6.2 7.8-9 1.7-2.7 4.1-7.8 5.3-11.2 1.4-4.4 2.1-8.8 2.1-14.5 0-5.5-0.6-10.5-1.9-14.8-1.1-3.6-3.4-8.7-5.2-11.5-1.7-2.7-19.4-21.4-39.3-41.3-19.8-20-38.6-38.3-41.6-40.6-3-2.3-7.8-5.1-10.5-6.4-2.8-1.2-7-2.8-9.5-3.7-2.7-0.9-7.9-1.4-13-1.4-6.1 0.1-10.2 0.7-14.5 2.3z"/>
</svg>