<svg version="1.2" xmlns="http://www.w3.org/2000/svg" viewBox="0 0 512 512" width="512" height="512">
	<title>twitter</title>
	<style>
		.s0 { fill: #ececec } 
	</style>
	<path id="Path 0" fill-rule="evenodd" class="s0" d="m5.6 0l148.9-0.1 64.5 93.7c35.5 51.5 64.7 93.8 65 93.9 0.3 0.2 36.3-41.3 80-92.2 43.7-50.8 80.2-93.1 81-93.9 1.2-1.1 5.6-1.3 44.7-0.9l-92.8 108c-51.1 59.4-92.9 108.2-92.9 108.5 0 0.3 45.1 66 100.1 146 55 80 100.5 146.3 101 147.3 0.9 1.6-3 1.7-147.6 1.8l-68-99c-37.4-54.5-68.4-98.9-69-98.7-0.6 0.1-39.3 44.7-171 197.7h-22c-20.8 0-21.9-0.1-20.5-1.8 0.8-0.9 44.7-51.9 97.4-113.2 52.8-61.4 95.9-112 95.9-112.6 0-0.6-43-63.5-95.5-140-52.5-76.5-96.3-140.2-97.3-141.8zm216.3 257.1l155.7 222.4c54.8 0.5 67.3 0.2 67.1-0.4-0.1-0.5-70.2-101.1-155.7-223.5l-155.5-222.5c-51.5 0-66.6 0.3-66.8 0.7-0.2 0.4 69.6 100.9 155.2 223.3z"/>
</svg>