<svg version="1.2" xmlns="http://www.w3.org/2000/svg" viewBox="0 0 800 800" width="800" height="800"><style>.a{fill:#5172fd}.b{fill:#f35458}</style><path class="a" d="m418.5 570c-2.8 0.4-6.8 1.5-9 2.4-2.2 1-5.8 3.2-7.9 4.9-2.2 1.8-4.9 5.2-5.9 7.7-1.2 2.6-2.1 6.9-2.1 10 0 3 0.7 7.5 1.6 10 1 2.8 3.5 6.2 6.5 9 3.3 3 7.9 5.8 13.9 8.3 4.9 2 9.9 4.4 11.2 5.2 1.2 0.8 2.2 2.4 2.2 3.5 0 1.1-0.9 2.5-2 3-1.1 0.5-3.6 1-5.5 1-1.9 0-6.8-1.2-10.8-2.6-3.9-1.5-8.2-3.3-9.4-4-2.2-1.4-2.5-1.1-8 8.3-3.1 5.4-5.7 10.5-5.7 11.3-0.1 0.9 2.6 2.8 6.4 4.8 3.6 1.8 9.9 3.9 14 4.8 5.1 1.1 10.4 1.4 16.5 1.1 7.1-0.4 10.3-1.1 15.5-3.4 3.6-1.7 7.8-4.3 9.4-5.9 1.6-1.6 3.7-4.7 4.7-6.9 1.1-2.3 1.9-6.3 1.9-9.5 0-3-0.4-7.1-1-9-0.5-1.9-2.1-5.1-3.5-7-1.5-1.9-4.3-4.7-6.3-6.2-2-1.5-7.8-4.3-12.7-6.3-4.9-1.9-9.8-4.3-10.8-5.3-1-0.9-1.8-2.3-1.7-3 0-0.6 0.9-1.7 2-2.2 1.1-0.5 3.7-1 5.8-1 2 0 6.3 1.3 9.5 2.8 3.1 1.5 5.9 2.5 6.1 2.2 0.2-0.3 2.9-4.7 6-9.8 3.1-5 5.6-9.5 5.6-10 0.1-0.4-2.5-1.9-5.7-3.4-3.2-1.4-7.6-3.1-9.8-3.6-2.2-0.6-6.7-1.2-10-1.5-3.3-0.3-8.2-0.1-11 0.3zm98.5 0c-3 0.5-8.6 2.4-12.5 4.3-3.9 1.9-9.5 5.6-12.5 8.4-3.5 3.2-6.6 7.3-8.7 11.4-1.7 3.5-3.7 9.5-4.3 13.4-0.9 5.3-0.9 8.6-0.1 13.5 0.7 3.6 2.5 9.3 4.1 12.7 1.8 3.8 5.1 8.3 8.3 11.4 2.8 2.8 8.3 6.6 12.2 8.5 3.9 1.9 9.5 3.9 12.5 4.4 3 0.6 8.2 1 11.5 1 3.3 0 8-0.5 10.5-1.1 2.5-0.6 7.1-2.2 10.3-3.7 3.2-1.5 5.8-3 5.7-3.5 0-0.4-2.3-5.3-5.1-11-2.8-5.6-5.2-10.3-5.3-10.4 0-0.1-2.6 0.7-5.6 1.7-3 1.1-7.5 1.9-10 2-2.5 0-6.2-0.5-8.3-1-2-0.6-5.3-2.5-7.3-4.3-1.9-1.7-4-4.8-4.6-6.7-0.6-1.9-0.9-6-0.7-9.1 0.3-4.1 1.1-6.5 3.2-9.2 1.5-2 4.2-4.4 6-5.3 1.7-0.9 5.7-1.9 8.7-2.2 4.1-0.4 7.1 0 11.8 1.6 3.4 1.2 6.4 2.1 6.6 1.9 0.2-0.1 2.7-4.9 5.6-10.7l5.2-10.5c-3.6-2.8-7.4-4.5-10.7-5.5-3.3-1-9.4-2-13.5-2.3-4.1-0.3-10-0.1-13 0.3zm169 44v43h26l0.1-56.5 24.8 56 35.1 0.5v-86h-26.1l-0.4 54.7-24.4-54.2-35.1-0.5z"/><path fill-rule="evenodd" class="b" d="m398.9 97c0.3 0 3.5 3.5 7.1 7.7 3.6 4.3 11.9 13.2 18.5 19.7 6.6 6.6 16.3 15.6 21.5 20.1 5.2 4.5 15.1 12.4 22 17.5 6.9 5 16.8 11.7 22 14.8 5.2 3.1 15.8 8.6 23.5 12.3 7.7 3.7 19.2 8.7 25.5 11.2 6.3 2.5 16.5 6.1 22.5 8.1 6 1.9 14.8 4.6 28 8.4l-0.2 11.4c-0.2 6.2-1.4 21-2.9 32.8-1.4 11.8-3.6 29.1-5 38.5-1.3 9.4-2.9 19.8-4.4 29.5h-43c-33.5 0-43.1-0.3-43.4-1.2-0.2-0.7-1.3-4.7-2.6-8.8-1.2-4.1-4-10.9-6.2-15-2.2-4.1-6.5-10.8-9.6-14.9-3.1-4.1-8.2-9.5-11.2-12.1-3-2.5-7.5-6-10-7.7-2.5-1.7-7.3-4.4-10.7-6.2-3.5-1.7-10.2-4.3-15-5.8-8.2-2.5-10.1-2.7-26.8-2.7-16.7 0-18.6 0.2-26.7 2.7-4.9 1.5-11.6 4.1-15 5.8-3.5 1.8-8.3 4.5-10.8 6.2-2.5 1.7-6.9 5.1-9.9 7.6-2.9 2.5-7.7 7.5-10.5 11.1-2.8 3.5-7 9.8-9.4 14-2.3 4.1-5.3 10.9-6.6 15-1.4 4.1-2.6 8.4-2.8 9.5-0.3 2-1.3 2-85.6 3l-0.6-3.5c-0.3-1.9-1.9-12.5-3.5-23.5-1.7-11-4.1-29.7-5.6-41.5-1.4-11.8-2.6-26.6-3-44.3l5.5-1.4c3-0.8 11.6-3.3 19-5.7 7.4-2.4 18.9-6.5 25.5-9.1 6.6-2.6 18.8-8 27-11.9 8.3-4 20.9-10.8 28-15.1 7.1-4.3 17.5-11 23-14.9 5.5-3.9 13.8-10.3 18.5-14.2 4.7-3.9 13.5-12.3 19.5-18.6 6.1-6.2 13.9-15.3 17.4-20.1 3.6-4.8 6.7-8.7 7-8.7zm93.1 161h50v-20h-50zm-238 26h43v-44h-43zm85.5 285.7c3.3 0.3 8 0.9 10.5 1.4 2.5 0.6 7.1 2.2 10.3 3.7 3.2 1.5 5.8 2.8 5.7 3 0 0.1-2.6 4.5-5.7 9.8-3.2 5.3-6.1 9.8-6.5 10-0.5 0.2-3.3-0.7-6.3-2.1-3.1-1.4-7.3-2.5-9.8-2.5-2.4 0-4.8 0.6-5.5 1.3-0.7 0.6-1.2 2-1.2 3q0 1.7 6.3 4.6c3.4 1.5 9.1 4.1 12.6 5.7 4.2 1.9 7.7 4.5 10.3 7.4 2.5 2.8 4.5 6.6 5.5 10 0.9 3.2 1.3 7.4 1 10-0.3 2.5-1.4 6.3-2.4 8.5-1.1 2.2-3.8 5.5-5.9 7.3-2.1 1.8-6.4 4.2-9.4 5.3-3.3 1.3-8.9 2.3-14 2.6-5.5 0.3-10.9 0-15.5-1-3.9-0.8-9.5-2.4-12.5-3.5-3-1.2-6.5-2.9-10-5.7l6.1-10.5c3.4-5.8 6.2-10.6 6.3-10.8 0-0.1 1.7 0.6 3.6 1.7 1.9 1.1 6.3 2.9 9.8 4 3.4 1.2 8 2.1 10.1 2.1 2.2 0 4.7-0.7 5.5-1.5 0.9-0.8 1.6-2 1.6-2.5 0-0.5-1-1.9-2.2-3-1.3-1.1-5.7-3.4-9.8-5-4.1-1.6-9.5-4.3-12-5.9-2.5-1.6-5.7-4.6-7.2-6.7-1.5-2.2-3.2-5.5-3.8-7.4-0.5-1.9-1-5.3-1-7.5 0-2.2 0.5-5.7 1-7.7 0.6-2.1 2.7-5.6 4.8-7.9 2-2.2 6-5.2 8.7-6.5 2.8-1.3 7.3-2.8 10-3.3 2.8-0.5 7.7-0.7 11-0.4zm-311.3 1.1l21.1 0.4c19.5 0.4 21.7 0.6 27.2 2.8 4.1 1.6 7.7 4 11.3 7.7 2.8 2.9 6.3 7.7 7.7 10.6 1.3 2.8 3 8.8 3.7 13.2 1 6.3 0.9 9.8 0 16.5-0.8 5.2-2.4 10.9-4.1 14.5-1.7 3.5-4.9 7.8-7.8 10.5-2.6 2.4-7.3 5.6-10.3 7-5.3 2.4-6.3 2.5-49 3zm25.8 63.2c5.1 0 8.1-1 10-2.3 2-1.2 4.6-4.3 5.8-6.7 2-3.9 2.3-5.7 2-12-0.3-6-1-8.4-3.1-11.8-1.5-2.3-4-4.9-5.7-5.7-1.6-0.9-4.3-1.5-6-1.5h-3z"/><path fill-rule="evenodd" class="a" d="m389.7 299h16.8l-0.9 6.2c-0.5 3.5-1 8.3-1 10.8 0 2.5 0.4 10.6 1.7 31.5l-8.4 7.3c-4.6 3.9-8.5 7.1-8.6 7-0.2-0.2 0.2-6.2 0.8-13.3 0.6-7.1 1.3-17.7 1.7-23.5 0.4-5.8 0.4-12.3 0.1-14.5-0.3-2.2-0.9-5.7-1.4-7.8zm16.9 54c0.2 0 0.4 0.9 0.4 2 0 1.3-3.3 4.9-9.3 10-5 4.3-9.4 7.8-9.5 7.7-0.2-0.1-0.1-1.2 0.2-2.4 0.3-1.2 4.5-5.6 9.2-9.8 4.8-4.1 8.8-7.4 9-7.4zm0.9 8.7l0.6 5.9c0.4 3.2 0.7 8.4 0.8 11.6 0.1 5.4-0.2 6.2-4.7 12.2-2.6 3.6-5.2 6.5-5.7 6.5-0.6 0.1-3.4-3.1-6.3-6.9-4.4-6-5.1-7.5-4.5-9.8 0.5-1.7 4.3-5.9 10.3-11.1zm-140.5 4.2c30.3 0 39 0.3 39.3 1.3 0.2 0.7 1.6 5.1 3 9.7 1.4 4.7 4.7 12.1 7.2 16.5 2.5 4.4 7 11 10 14.5 2.9 3.6 6.4 7.4 7.6 8.5 1.3 1.1 5.3 4.2 8.9 6.9 3.5 2.7 9 6.2 12.2 7.8 3.2 1.6 8.3 3.7 11.5 4.8 3.2 1.1 8.9 2.7 12.8 3.5 3.9 0.9 12.1 1.5 19 1.5 6.8 0 15-0.6 19-1.5 3.8-0.8 9.5-2.4 12.7-3.5 3.2-1.1 8.3-3.2 11.5-4.8 3.2-1.6 8.7-5.1 12.3-7.8 3.5-2.7 7.5-5.8 8.8-6.9 1.3-1.1 4.7-4.9 7.7-8.5 2.9-3.5 7.4-10.1 9.9-14.5 2.5-4.4 5.8-11.8 7.2-16.5 1.5-4.6 2.8-9 3-9.7 0.3-1 9.1-1.3 39.9-1.3 34.4 0 39.5 0.2 39.5 1.5 0 0.9-1.6 8.6-3.5 17.3-1.9 8.7-5.1 21.1-6.9 27.7-1.9 6.6-4.3 14.1-5.4 16.5-1 2.5-4.3 8.1-7.2 12.5-3 4.4-8.1 11.6-11.4 16-3.3 4.4-9.2 11.9-13 16.5-3.9 4.7-10.4 12.3-14.6 17-4.1 4.6-12 12.4-17.5 17.3-5.5 4.9-13.9 11.5-18.5 14.7-4.7 3.1-11 7.1-14 8.7-3.1 1.6-8.9 4.3-13 6.1-4.2 1.7-10.5 4-14 5.1-3.6 1.1-10.4 2.5-15 3.2-5.4 0.8-13.5 1-22 0.7-10.1-0.5-15.8-1.2-22.5-3.1-5-1.4-12.2-3.9-16-5.5-3.9-1.6-9.7-4.4-13-6.2-3.3-1.8-9.9-5.8-14.5-9-4.7-3.1-11.5-8.1-15-11-3.6-3-10.5-9.2-15.4-13.9-4.9-4.7-13.5-14-19.1-20.6-5.6-6.6-12.9-15.6-16.2-20-3.3-4.4-8.4-11.6-11.3-16-3-4.4-6.2-10-7.3-12.5-1-2.4-3.4-9.9-5.3-16.5-1.9-6.6-5-19-7-27.7-1.9-8.7-3.4-16.4-3.4-17.3 0-1.3 5-1.5 39-1.5zm365.5 205l16.2 39.3c8.9 21.6 16.8 40.9 19.3 46.7h-28l-5.5-15h-29.5l-5.5 15.1h-13.8c-7.6-0.1-13.8-0.2-13.8-0.4-0.1-0.2 7.4-18.6 16.6-40.8 9.2-22.2 17.1-41.4 17.6-42.6 0.8-2.2 1.3-2.3 26.4-2.3zm-18.3 47.8c-0.2 0.9 1.5 1.2 5.8 1.2 4.3 0 5.9-0.3 5.6-1.2-0.2-0.7-1.4-4.2-2.7-7.8-1.2-3.5-2.5-6.8-2.9-7.2-0.3-0.4-1.7 2.5-3 6.5-1.4 4-2.6 7.8-2.8 8.5z"/><path fill-rule="evenodd" class="b" d="m122 571h22.8c21.8 0 22.9 0.1 27.7 2.4 2.8 1.3 6.2 3.6 7.7 5.2 1.5 1.6 3.7 5.2 4.9 7.9 1.6 3.8 2.1 6.9 2.1 12.5-0.1 5.9-0.6 8.6-2.6 12.5-1.4 2.9-4.1 6.2-6.3 7.7-2.1 1.5-4.4 2.8-5.1 2.8-0.6 0-1.2 0.3-1.2 0.7 0 0.5 3.9 7.3 8.7 15.3 4.7 8 9.2 15.5 11.3 19h-29.5l-14-26.4-0.5 26.4h-26zm26 36c4.7 0 7.3-0.7 9-1.5 1.9-1 3.2-2.5 3.5-4.3 0.3-1.5 0.1-3.9-0.5-5.5-0.6-1.7-2.1-3.1-4.3-3.7-1.7-0.6-4.2-1-5.5-1-2.1 0-2.2 0.4-2.2 8zm68-36h59v22h-33v10h33v22h-33v10h33v22h-59z"/></svg>