<svg version="1.2" xmlns="http://www.w3.org/2000/svg" viewBox="0 0 1120 1120" width="1120" height="1120"><style>.a{fill:#212121}.b{fill:#4caf50}</style><path class="a" d="m551 1.7c-1.9 0.3-33.4 16.2-70 35.2-36.6 19.1-154.6 80.6-262.4 136.6-154.1 80.3-196.9 103-200.8 106.5-3 2.7-6.2 6.9-7.9 10.5-1.6 3.3-3.6 8.5-4.4 11.5-1.3 4.8-1.5 39-1.5 257 0 218 0.2 252.2 1.5 257 0.8 3 2.8 8.2 4.4 11.5 1.7 3.6 4.9 7.8 7.9 10.5 3.9 3.5 44.2 25 188.3 99.9 100.9 52.5 218.7 114 261.9 136.5l78.5 41.1 23 0.8c66.6-34.8 184.9-96.4 305.9-159.4 173.4-90.2 220.9-115.4 224.8-118.9 3-2.7 6.2-6.9 7.9-10.5 1.6-3.3 3.6-8.5 4.4-11.5 1.3-4.8 1.5-39 1.5-257 0-218-0.2-252.2-1.5-257-0.8-3-2.8-8.2-4.4-11.5-1.7-3.6-4.9-7.8-7.9-10.5-3.8-3.5-35-20.1-141.3-75.5-75-39-158.2-82.4-184.9-96.3-26.7-13.9-83.6-43.6-126.5-66l-78-40.6c-11.6-0.3-16.6-0.2-18.5 0.1z"/><path class="b" d="m525 49.2c-1.9 0.5-112.2 57.5-245 126.7-236.5 123.1-241.5 125.8-243.5 129.6-2 4-2 6-2 253.5 0 247.5 0 249.5 2 253.5 2 3.8 7 6.5 243.5 129.7 172.9 90 243.1 126.1 247 126.9 5 1.1 5.9 1 9.8-0.9 3.7-2 4.4-2.8 5.7-7.7 1.3-4.9 1.5-63.7 1.5-501.5 0-437.8-0.2-496.6-1.5-501.5-1.3-4.8-2-5.7-5.5-7.5-2.2-1.1-5-2-6.3-1.9-1.2 0.1-3.8 0.5-5.7 1.1zm55.8 0.8c-3.2 1.7-4 2.8-5.3 7.5-1.3 4.9-1.5 63.7-1.5 501.5 0 437.8 0.2 496.6 1.5 501.5 1.3 4.9 2 5.7 5.8 7.7 3.8 1.9 4.7 2 9.7 0.9 3.9-0.8 74.1-36.9 247-126.9 236.5-123.2 241.5-125.9 243.5-129.7 2-4 2-6 2-253.5 0-247.5 0-249.5-2-253.5-2-3.8-6.8-6.4-234-124.7-127.6-66.5-237-123.3-243-126.4-6.5-3.2-12.8-5.6-15.5-5.9-3.3-0.4-5.5 0-8.2 1.5z"/><path class="a" d="m331.6 195.7l-138 63.6c0.3 102.1 0.7 131.9 1.1 132.1 0.5 0.2 29.4-6.9 64.3-15.9 34.9-9 63.8-16 64.3-15.7 0.4 0.4 0.6 74.5 0.4 164.7-0.3 161.8-0.3 164.2-2.4 175.5-1.2 6.3-2.6 13.6-3.2 16.3-0.6 2.6-2.4 8.2-4.1 12.5-1.6 4.2-4.7 10.4-6.8 13.7-2.1 3.3-5.8 7.8-8.3 9.9-2.4 2.2-6.7 5-9.4 6.2-2.8 1.3-7.9 3.1-11.5 4-5.1 1.3-9.4 1.5-20.5 1.1-8.8-0.3-17.3-1.3-23-2.6-5-1.1-19.8-5.2-33-9.1-13.2-3.9-27.8-8.6-32.5-10.4-4.7-1.8-10.5-4.3-13-5.6-2.5-1.2-7.8-4.6-11.9-7.4-4.1-2.8-10-7.9-13.2-11.3-3.7-3.9-7.2-9.1-9.3-13.5-1.9-4-4.1-10.2-5-13.8-0.8-3.6-2-11.7-2.6-18-0.5-6.3-1-31.4-1-55.7 0-41.4-0.1-44.3-1.8-44.7-0.9-0.3-14.2-0.7-29.5-1l-27.7-0.6c-0.4 57-0.4 82.3-0.2 93 0.1 10.7 0.9 25.1 1.7 32 0.9 6.9 2.5 17.2 3.6 23 1.2 5.8 3.7 15.2 5.6 21 1.9 5.8 5.8 15.5 8.7 21.5 2.9 6 6.9 13.5 8.8 16.5 1.9 3 6.2 8.9 9.5 13 3.3 4.1 9.6 10.8 13.9 14.9 4.4 4.1 11.3 10 15.4 13.1 4.1 3.1 11.3 8.2 16 11.2 4.7 3.1 14.1 8.4 21 11.8 6.9 3.4 26.2 12.5 43 20.2 16.8 7.7 35.9 16.4 42.5 19.3 6.6 2.9 17.9 7.3 25 9.9 7.1 2.6 18.9 6.2 26 8.1 7.1 1.8 18.6 4.1 25.5 5 9.4 1.3 16.5 1.6 28.5 1.2 11.2-0.4 18.1-1.1 23-2.5 3.9-1 9.7-2.9 13-4.1 3.3-1.3 7.4-3 9-3.8 1.6-0.8 6.1-3.6 10-6.2 3.8-2.5 10.6-8.2 15.1-12.6 4.4-4.4 9.9-10.5 12.1-13.5 2.2-3 5.5-8.2 7.3-11.5 1.8-3.3 3.7-6.7 4.2-7.5 0.4-0.8 2.3-4.9 4.1-9 1.9-4.1 5.2-13.1 7.5-20 2.2-6.9 4.7-15.2 5.6-18.5 0.8-3.3 2.9-13 4.5-21.5 1.6-8.5 3.6-21.6 4.5-29 0.8-7.4 2-19.1 2.6-26 0.7-8.4 1-105.9 1-299.7 0-229.2-0.3-287.3-1.3-287.2-0.6 0-63.3 28.6-139.1 63.6zm314.6 363.2c-0.1 233.3 0.1 424.1 0.5 424.1 0.5 0 28.7-12.7 62.8-28.3l62-28.4 1-269.7c4.6-1.2 22.9-3.6 43.5-6.1 20.6-2.4 58.3-6.9 83.7-10 25.5-3 46.9-5.5 47.5-5.5 0.7 0 2.3 3 3.5 6.7 1.2 3.8 4.7 14.9 7.8 24.8 3.1 9.9 8.3 26.3 11.5 36.5 3.2 10.2 10.6 33.8 16.5 52.5 5.9 18.7 12.7 40.4 15.1 48.2 3.6 11.8 4.7 14.2 6.1 14 1-0.2 13.6-5.7 28-12.3 14.4-6.5 26.2-12.5 26.3-13.2 0-0.6-6.3-22.5-14-48.5-7.8-25.9-15-50.3-16.1-54.2-1.1-3.9-2.4-8.1-2.9-9.5-0.5-1.4-4.3-14.1-8.5-28.3-4.1-14.1-7.5-26.3-7.5-27 0-0.6 2.8-3.1 6.2-5.3 3.5-2.3 9.3-7.5 13.1-11.5 4.6-5.1 8.4-10.7 12.1-17.9 3-5.8 6.8-14.8 8.6-20 1.7-5.2 4.2-14.9 5.5-21.5 1.3-6.6 3.2-18.8 4.1-27 1.3-11.1 1.7-23.5 1.8-47.5 0-19.1-0.5-37.5-1.3-44.5-0.6-6.6-1.9-16.7-2.7-22.5-0.8-5.8-2.9-16.1-4.6-23-1.6-6.9-4.5-16.6-6.3-21.5-1.8-5-5.5-13.5-8.3-19-2.8-5.5-7-12.8-9.4-16.2-2.3-3.4-7.1-9.1-10.6-12.7-3.4-3.6-9.5-9-13.5-12-3.9-3-9.5-6.5-12.2-7.9-2.8-1.4-82-37.7-176-80.7-94-43-171.5-78.5-172.1-78.7-0.8-0.4-1.1 117.1-1.2 423.6z"/><path class="b" d="m772 423.3c-0.1 77.5 0.2 96.4 1.2 97.3 0.8 0.7 14.6 1.8 37.3 2.8 19.8 0.9 51.8 2.5 71 3.6 19.3 1 51.2 2.6 71 3.6 27.4 1.2 37 1.4 40.3 0.5 2.3-0.6 6-2.8 8.3-4.9 2.2-2 5.4-6.4 7-9.7 1.6-3.3 3.6-9.1 4.4-13 0.8-3.9 2-12.9 2.6-20 0.6-7.5 0.8-19.4 0.5-28-0.4-8.3-1.3-19.2-2.1-24.3-0.8-5-2.5-12-3.8-15.5-1.2-3.4-3.8-8.8-5.7-12.1-1.9-3.2-5.3-7.4-7.5-9.2-2.2-1.9-6.9-4.6-10.5-5.9-3.6-1.4-52.3-15.7-108.3-32-55.9-16.2-102.6-29.5-103.7-29.5-2 0-2 0.7-2 96.2z"/></svg>