<svg version="1.2" xmlns="http://www.w3.org/2000/svg" viewBox="0 0 512 512" width="512" height="512">
	<title>linkedin</title>
	<style>
		.s0 { fill: #212121 } 
	</style>
	<path id="Path 0" fill-rule="evenodd" class="s0" d="m58.5 0.1l394.5-0.1 9.3 3.1c5 1.6 11.2 4.2 13.7 5.6 2.5 1.4 7.1 4.7 10.3 7.2 3.3 2.5 8.1 7.5 10.9 11.1 2.7 3.6 6.2 9.2 7.8 12.5 1.6 3.3 3.8 9.4 4.9 13.5 2.1 7.5 2.1 7.9 1.6 402.5l-2.8 8c-1.6 4.4-4.1 10.3-5.7 13-1.6 2.8-4.8 7.3-7 10-2.3 2.8-6.5 6.9-9.3 9.3-2.9 2.4-7.5 5.6-10.2 7.2-2.8 1.6-9.2 4.3-23.5 9h-394l-9.3-3.1c-5-1.6-11.2-4.2-13.7-5.6-2.5-1.4-7.1-4.7-10.3-7.2-3.3-2.5-8.1-7.5-10.9-11.1-2.7-3.6-6.3-9.2-7.8-12.5-1.6-3.3-3.8-9.6-5-14-2-7.9-2-9.5-2-202.5 0-193 0-194.6 2-202.5 1.2-4.4 3.4-10.7 5-14 1.5-3.3 5.1-8.9 7.8-12.5 2.8-3.6 7.6-8.6 10.9-11.1 3.2-2.5 7.8-5.8 10.3-7.2 2.5-1.4 8.5-3.9 13.5-5.6zm62.1 100.9c-2.8 1.4-7.3 4.7-10.1 7.5-2.9 2.7-6.6 7.8-8.3 11.2-1.8 3.5-3.7 9.3-4.4 13-0.8 5-0.9 8.6-0.1 13.3 0.6 3.6 2.2 9 3.6 12 1.4 3 4.6 7.7 7 10.5 2.5 2.7 6.9 6.5 9.8 8.2 3 1.8 7.9 4 10.9 4.8 3 0.8 8.5 1.5 12.2 1.5 4.2 0 9.1-0.8 12.8-2 3.3-1.1 7.7-3.1 9.7-4.4 2.1-1.3 5.7-4.3 8.1-6.7 2.4-2.4 5.4-6.2 6.6-8.4 1.3-2.2 3.2-6.7 4.1-10 1.3-4.3 1.6-8.4 1.3-14.5-0.3-7-1-9.7-3.6-15.3-1.8-3.7-5.4-9.1-8.1-12-2.7-2.8-7.1-6.4-9.7-7.9-2.7-1.5-7.6-3.4-10.9-4.2-3.3-0.9-8.5-1.6-11.5-1.5-3 0-7.5 0.6-10 1.3-2.5 0.6-6.7 2.3-9.4 3.6zm189.4 100.5c-3.6 0.9-8.8 2.7-11.5 4-2.8 1.2-7.7 4.2-11 6.7-3.3 2.5-7.8 6.9-10 9.7l-4 5.2c-0.8-14.4-1.6-19.6-2.3-20.9-0.7-1.2-2.1-2.7-3.2-3.2-1.2-0.6-13.2-1-29.5-1h-27.5l-5.5 4.8c-0.5 179.6-0.3 201.3 0.7 203.6 0.7 1.6 2.5 3.5 4 4.2 2.2 1.1 8.6 1.3 29.8 1.1 26.5-0.2 27-0.2 29.2-2.5l2.3-2.3c1-108.3 1.3-116.1 2.8-121.4 1-3.3 3-8.7 4.5-12 1.6-3.3 4.6-8 6.8-10.3 2.1-2.4 6.6-5.7 9.9-7.3 5.2-2.6 7.1-2.9 14.5-2.9 4.8 0 10.5 0.6 13 1.5 2.5 0.8 6.7 3.4 9.3 5.7 2.7 2.4 6 6.5 7.3 9.3 1.3 2.7 3.1 7.7 4.1 11 1.5 5.3 1.7 12.9 2 64.5 0.2 32.2 0.5 59.5 0.8 60.7 0.3 1.3 2 3.2 3.7 4.3 3.1 1.9 5.1 2 30.7 2h27.3l6.8-7c0-89.5-0.5-120.9-1.1-127.5-0.5-6.6-1.9-16.5-3-22-1.1-5.5-3.5-13.6-5.3-18-1.8-4.4-4.8-10.5-6.8-13.5-2.1-3-6.1-7.8-9-10.7-2.9-2.9-8-6.8-11.3-8.8-3.3-2-9.4-4.6-13.5-6-4.1-1.3-11.9-2.8-17.3-3.4-5.3-0.6-11.4-1-13.5-1-2 0.1-6.8 0.5-10.7 0.9-3.9 0.4-9.9 1.6-13.5 2.5zm-199.3 3c-1.5 1.4-2.9 3.5-3.2 4.7-0.3 1.3-0.4 46.9-0.3 101.5l0.3 99.3 5.5 5.5c46 0.5 53.2 0.2 55.3-0.7 1.6-0.7 3.6-2.4 4.5-3.8 1.6-2.3 1.7-11.1 2-98.5 0.2-52.8 0-98-0.4-100.5-0.4-3.1-1.6-5.4-3.5-7.3l-2.9-2.7h-54.7z"/>
</svg>