<svg version="1.2" xmlns="http://www.w3.org/2000/svg" viewBox="0 0 512 512" width="512" height="512">
	<title>maps-and-flags</title>
	<style>
		.s0 { fill: #212121 } 
	</style>
	<path id="Path 0" fill-rule="evenodd" class="s0" d="m256.5 0.3c12.5 0.2 22.3 0.9 28.5 2 5.2 1 13.1 2.7 17.5 3.8 4.4 1.1 12.2 3.6 17.3 5.5 5 1.9 13.3 5.4 18.2 7.9 4.9 2.5 12 6.4 15.8 8.6 3.7 2.3 10.3 6.9 14.7 10.3 4.4 3.3 12.7 10.8 18.5 16.6 5.8 5.8 13.2 14.1 16.5 18.5 3.2 4.4 8 11.4 10.6 15.5 2.5 4.1 6 10.2 7.6 13.5 1.7 3.3 4.7 10.3 6.8 15.5 2 5.2 4.8 13.6 6.1 18.5 1.4 4.9 3.4 14.4 4.4 21 1.3 7.7 2 17 2 26 0 7.7-0.5 17.8-1 22.5-0.6 4.7-2.2 13.7-3.7 20-1.4 6.3-4.3 17.1-6.5 24-2.2 6.9-5.8 17-8 22.5-2.2 5.5-7.1 16.8-11 25-3.8 8.2-10.4 21.3-14.6 29-4.1 7.7-11.6 20.8-16.5 29-4.9 8.2-14.7 23.6-21.6 34-7 10.4-16.9 24.9-22.1 32-5.2 7.1-15.7 21.1-23.4 31-7.6 9.9-19.3 24.5-25.9 32.5-6.6 8-14.1 16.7-16.6 19.3-2.5 2.7-5.8 5.5-7.3 6.3-1.6 0.8-4.6 1.4-6.8 1.4-2.2 0-5.2-0.6-6.7-1.4-1.6-0.8-4.9-3.6-7.4-6.3-2.5-2.6-10-11.3-16.6-19.3-6.6-8-18.3-22.6-25.9-32.5-7.7-9.9-18.2-23.9-23.4-31-5.2-7.1-15.1-21.6-22.1-32-6.9-10.4-16.7-25.8-21.6-34-4.9-8.3-12.4-21.3-16.5-29-4.2-7.7-10.8-20.8-14.6-29-3.9-8.3-8.8-19.5-11-25-2.2-5.5-5.8-15.6-8-22.5-2.2-6.9-5.1-17.7-6.5-24-1.5-6.3-3.1-15.3-3.7-20-0.5-4.7-1-14.8-1-22.5 0-9 0.7-18.3 2-26 1-6.6 3-16.1 4.4-21 1.3-4.9 4.1-13.3 6.1-18.5 2.1-5.2 5.1-12.2 6.8-15.5 1.6-3.3 5.1-9.4 7.6-13.5 2.6-4.1 7.4-11.1 10.6-15.5 3.3-4.4 10.7-12.7 16.5-18.5 5.8-5.8 14.1-13.3 18.5-16.6 4.4-3.4 11-8 14.8-10.3 3.7-2.2 10.8-6.1 15.7-8.6 4.9-2.5 13.2-6 18.3-7.9 5-1.9 12.8-4.4 17.2-5.5 4.4-1.1 12.3-2.7 17.5-3.6 5.2-0.8 9.7-1.8 10-2.1 0.2-0.2 9-0.3 19.5-0.1zm-28.5 96.2c-3 1-9.1 3.5-13.5 5.6-4.4 2.1-11.7 6.8-16.2 10.4-4.7 3.7-11.1 10.1-14.8 14.7-3.6 4.6-8.5 12.4-11 17.3-2.4 4.9-5.4 12.4-6.5 16.5-1.3 4.7-2.3 11.9-2.7 19.5-0.3 7.2-0.1 15 0.6 19.5 0.7 4.1 2.5 11.3 4.2 16 1.6 4.7 4.5 11.2 6.3 14.5 1.9 3.3 6 9.3 9.2 13.4 3.3 4 9.5 10.3 13.9 13.8 4.5 3.6 12.4 8.6 18 11.3 5.5 2.7 12.7 5.6 16 6.4 3.3 0.8 10.2 2 15.3 2.6 6.3 0.7 12.1 0.7 18.5 0 5-0.6 11.9-1.8 15.2-2.6 3.3-0.8 10.5-3.7 16-6.4 5.6-2.7 13.5-7.7 18-11.3 4.4-3.5 10.6-9.8 13.9-13.8 3.2-4.1 7.3-10.1 9.2-13.4 1.8-3.3 4.7-9.8 6.3-14.5 1.7-4.7 3.5-11.9 4.2-16 0.7-4.5 0.9-12.3 0.6-19.5-0.4-7.6-1.4-14.8-2.7-19.5-1.1-4.1-4.1-11.6-6.5-16.5-2.5-4.9-7.4-12.7-11-17.3-3.7-4.6-10.1-11-14.7-14.7-4.6-3.6-11.9-8.3-16.3-10.4-4.4-2.1-11.1-4.8-15-5.9-3.9-1.2-10.5-2.6-14.7-3.1-4.3-0.6-10.2-1.1-13-1-2.9 0.1-8.9 0.7-13.3 1.4-4.4 0.7-10.5 2.1-13.5 3z"/>
</svg>