<svg version="1.2" xmlns="http://www.w3.org/2000/svg" viewBox="0 0 512 512" width="512" height="512">
	<title>user</title>
	<style>
		.s0 { fill: #212121 } 
	</style>
	<path id="Path 0" class="s0" d="m229 2.1c-4.7 1-11.4 2.8-15 3.8-3.6 1.1-11 4.2-16.5 7-5.5 2.8-13.8 7.9-18.5 11.4-4.7 3.5-12 10.2-16.4 14.8-4.3 4.6-10.2 12-13.1 16.4-2.9 4.4-6.6 10.7-8.3 14-1.6 3.3-4.1 9.4-5.5 13.5-1.4 4.1-3.3 11.1-4.2 15.5-0.9 4.4-1.9 13.2-2.2 19.5-0.4 8 0 15 1.1 23 1 6.6 3.2 16.2 5.4 22.5 2 6.1 5.9 14.8 8.6 19.5 2.7 4.7 6.9 11.2 9.4 14.5 2.6 3.3 8.5 9.8 13.2 14.4 4.7 4.6 12.8 11.1 18 14.5 5.2 3.5 13.3 8 18 10.1 4.7 2 12.8 4.8 18 6.1 5.2 1.4 14.4 2.8 20.5 3.3 6.1 0.5 15.7 0.5 21.5 0 5.8-0.4 13.6-1.5 17.5-2.4 3.9-0.9 10.1-2.8 14-4.1 3.9-1.4 10.6-4.4 15-6.7 4.4-2.3 11.4-6.7 15.5-9.8 4.1-3.1 11-9.2 15.2-13.5 4.3-4.4 9.9-10.8 12.5-14.4 2.7-3.6 6.7-10.1 9-14.5 2.3-4.4 5.3-11.2 6.7-15 1.4-3.8 3.2-9.9 4-13.5 0.9-3.6 2-11.7 2.5-18 0.7-7.7 0.7-15.1 0-22.5-0.6-6-1.9-14.6-3-19-1.1-4.4-3.8-12.2-6-17.3-2.1-5-5.3-11.6-7.1-14.4-1.7-2.9-4.5-7.1-6.2-9.3-1.7-2.2-5.1-6.4-7.6-9.4-2.5-2.9-7.9-8.2-12-11.8-4.1-3.5-10.4-8.4-14-10.7-3.6-2.4-9-5.6-12-7.1-3-1.5-9.1-4-13.5-5.5-4.4-1.5-10.7-3.3-14-4-3.3-0.6-7.6-1.5-9.5-2.1-1.9-0.5-10-0.8-18-0.8-10.2 0.1-17 0.7-23 2zm-86.5 246c-4.4 0.5-11.4 1.8-15.5 3-4.1 1.1-10.7 3.5-14.5 5.3-3.8 1.8-9.8 5.1-13.3 7.4-3.4 2.3-8.6 6.6-11.4 9.5-2.9 2.9-7.4 7.9-9.9 11.2-2.6 3.3-7 10.1-9.8 15-2.8 5-7 13.7-9.2 19.5-2.2 5.8-5.6 16.4-7.4 23.5-1.8 7.1-4.2 18.9-5.4 26-1.1 7.1-2.5 19.3-3.1 27-0.5 7.7-1 19-1 25 0 6.1 0.5 14.1 1 18 0.6 3.9 1.7 9.7 2.5 13 0.9 3.3 3.7 10.3 6.3 15.5 3.4 6.8 6.7 11.5 11.7 16.9 3.8 4.1 9.3 9.1 12 11.1 2.8 2 7.7 5.1 11 6.7 3.3 1.7 9.6 4.2 14 5.6 4.4 1.3 11.2 3 15 3.6 5.2 0.9 41.9 1.2 144 0.9l137-0.3c13.2-3.6 21.1-6.6 26-8.9 4.9-2.4 12.1-6.8 16-9.9 3.9-3.1 9.4-8.7 12.4-12.4 3-3.8 7.1-10.4 9.2-14.8 2.2-4.4 4.8-11.6 6-16 1.5-5.8 2.3-12.3 2.6-23.5 0.3-8.5 0-22.2-0.6-30.5-0.6-8.2-2-20.6-3.1-27.5-1.1-6.9-3.5-18.1-5.2-25-1.7-6.9-4.6-16.5-6.6-21.5-1.9-4.9-5-12.1-6.9-16-2-3.9-5.4-9.9-7.8-13.5-2.3-3.6-6.6-9.4-9.6-13-3.1-3.6-8.7-8.9-12.5-11.7-3.8-2.9-10.3-7.1-14.4-9.2-4.1-2.2-11.3-5.1-16-6.4-4.7-1.4-13.1-3-18.7-3.6-5.7-0.6-11.8-0.8-13.5-0.5-1.8 0.4-5.5 1.8-8.3 3.2-2.7 1.3-11.3 6.5-19 11.5-7.7 4.9-15.6 9.7-17.5 10.7-1.9 1-7.8 3.4-13 5.4-5.2 2-13.8 4.5-19 5.6-6.6 1.5-13.1 2.1-21 2.1-6.4 0-15.3-0.8-20-1.7-4.7-0.9-13.2-3.3-19-5.3-5.8-2.1-12.1-4.6-14-5.6-1.9-1-11.4-6.8-21-12.9-11.1-7-19.3-11.5-22.5-12.3-2.7-0.7-5.9-1.2-7-1.2-1.1 0.1-5.6 0.6-10 1z"/>
</svg>